<svg xmlns="http://www.w3.org/2000/svg" height="800" width="1200" viewBox="-44.1357 -70.83075 382.5094 424.9845"><g fill-rule="evenodd"><path d="M66.98 42.5l-6.548 13.31 22.654 5.043 6.44-13.202zm27.483 6.334L88.02 62.141l22.656 5.15 6.326-13.203zm73.53 16.953l-6.333 13.307 22.654 5.26 6.438-13.307zm27.589 6.444l-6.44 13.302 22.756 5.155 6.332-13.204zm-25.332 85.957c-1.289 0-2.468.538-3.541 1.505-.863.858-1.504 2.251-1.504 3.645 0 1.4.641 2.577 1.504 3.65 1.073.858 2.252 1.504 3.541 1.504 1.504 0 2.898-.646 3.756-1.504 1.073-1.073 1.504-2.25 1.504-3.65 0-1.394-.431-2.787-1.504-3.645-.858-.967-2.252-1.505-3.756-1.505zm-9.342 12.988v6.117h36.178c-4.94 1.073-9.336 3.434-12.56 6.758-1.715 1.72-3.326 4.403-4.83 7.838-.648 1.499-1.183 3.004-1.825 4.718 10.52.11 17.069.537 19.967 1.61 1.93.752 3.651 1.824 5.476 3.113 2.252 1.715 3.433 3.33 3.754 4.94h-21.254l-7.191 7.191h24.906c7.296-5.476 10.84-9.984 10.84-13.635 0-1.61-.75-3.108-2.039-4.396-2.898-2.899-6.765-4.725-11.594-5.582-2.467-.432-6.87-.752-13.097-.752a37.998 37.998 0 002.578-4.076c1.288-1.61 2.466-2.362 3.865-2.362 3.22 0 8.695 2.145 15.99 6.332l7.301-7.406c-2.788-1.715-5.685-3.218-8.373-4.291h85.238v-6.117H175.51zm4.94 11.05v31.235h8.91v-31.234zm55.713 0v31.235h9.015v-21.252c2.362-.968 4.723-1.61 7.195-1.61 2.467 0 4.404.754 5.903 1.932 1.825 1.93 2.577 4.94 2.256 9.016l7.62-7.406c.216-3.861-.75-6.87-2.68-8.801-1.616-1.504-3.546-2.361-6.013-2.361-2.361 0-5.044.751-7.837 2.36-2.578 1.18-4.724 2.9-6.444 4.614v-7.726zm36.603 0v23.292s.216 4.508 3.225 6.76c2.035 1.288 4.933 1.183 4.933 1.183h24.37V190.6c0-2.257-.753-4.188-2.042-5.797-1.178-1.715-2.787-2.576-4.722-2.576zm21.988 8.212c2.33-.044 2.166.574 2.166 4.238v10.41h-14.06s-1.398.111-1.719-.32c-.426-.537-.217-1.18-.217-4.293v-9.983h12.672a29.53 29.53 0 011.158-.052z" fill="#0e88d3"/><path d="M72.777 165.163L154.254 0l-.537 283.323-22.433-188.449-58.507 70.289" fill="#f47216"/><path d="M108.307 154.107c-.523.02-1.057.056-1.608.11l-3.004 7.191c8.471-1.53 12.088.832 15.285 9.551H0v6.223h28.662v3.545s-11.384-4.508-21.04 4.181c-7.623 8.8-1.185 17.39-1.185 17.39s6.23-3.435 16.102-1.825c9.231 1.61 8.805 6.008 8.805 6.008s-1.29 5.475-8.696 4.402c-7.406-1.184-6.869-8.584-6.869-8.584l-8.158 5.47s3.1 5.277 10.08 6.963l6.236 9.354h9.233l-7.121-9.201a27.029 27.029 0 002.502-.567c17.926-4.723 11.593-18.247-1.715-21.787-9.237-2.361-19.215 2.145-19.215 2.145s1.284-11.377 17.816-8.69c9.232 1.605 12.561 5.366 12.561 5.366v-14.17h18.504l-7.768 3.65s3.972 4.402 5.366 10.193c1.183 6.013-1.395 7.087-3.004 7.192-1.073-.747-6.117-7.938-6.117-7.938l-3.545 3.11 12.775 20.072h9.016s-8.264-9.983-9.553-11.809c2.117-.071 5.033-.747 6.95-3.337a12.463 12.463 0 004.858 1.406c5.687.536 9.233-2.252 9.233-2.252v15.992h9.336v-36.28h20.205l-7.86 3.651s4.186 4.402 5.37 10.193c1.178 6.013-1.288 7.087-3.008 7.192-.858-.747-6.117-7.938-6.117-7.938l-3.545 3.11 12.67 20.072h9.12s-8.046-9.983-9.335-11.809c2.898-.105 7.726-1.5 8.584-8.369 1.252-9.113-2.816-14.525-4.227-16.101h11.096v36.273h9.342v-36.273h4.94v-6.223h-6.815c-3.857-13.496-8.569-17.126-16.162-16.852zM58.15 177.182h16.563v10.52s0 2.899-5.692 5.687c-2.4 1.307-4.862 1.812-6.974 1.953.182-.628.331-1.304.426-2.059 1.252-9.112-2.887-14.524-4.323-16.101z" fill="#f47216"/></g></svg>